<?xml version="1.0" encoding="utf-8"?>
<!-- Generator: Adobe Illustrator 23.0.1, SVG Export Plug-In . SVG Version: 6.00 Build 0)  -->
<svg version="1.1" id="Layer_1" xmlns="http://www.w3.org/2000/svg" xmlns:xlink="http://www.w3.org/1999/xlink" x="0px" y="0px"
	 viewBox="0 0 7776 432" style="enable-background:new 0 0 7776 432;" xml:space="preserve">
<style type="text/css">
	.st0{fill:#F0493E;}
	.st1{fill:#FFC934;}
	.st2{fill:#222B62;}
</style>
<rect x="3024" y="0" class="st0" width="432" height="432"/>
<path class="st1" d="M3456,168h-432V0h-432h-432v432h432h432V282h432V168z M2808,288c-39.76,0-72-32.24-72-72s32.24-72,72-72
	s72,32.24,72,72S2847.77,288,2808,288z"/>
<rect x="5616" y="0" class="st1" width="432" height="432"/>
<rect x="3456" y="0" class="st2" width="432" height="432"/>
<rect x="432" y="0" class="st1" width="432" height="432"/>
<g>
	<polygon class="st0" points="1080,0 1296,432 1296,0 	"/>
	<polygon class="st0" points="864,0 864,432 1080,0 	"/>
</g>
<path class="st2" d="M2160,432L2160,432c0-119.29,96.71-216,216-216h0c119.29,0,216,96.71,216,216v0C2592,432,2160,432,2160,432z"/>
<path class="st1" d="M3888,0L3888,0c0,119.29-96.71,216-216,216h0c-119.29,0-216-96.71-216-216v0C3456,0,3888,0,3888,0z"/>
<path class="st2" d="M5616,0L5616,0c119.29,0,216,96.71,216,216v0c0,119.29-96.71,216-216,216h0C5616,432,5616,0,5616,0z"/>
<polygon class="st0" points="0,432 0,0 432,0 "/>
<rect x="1296" y="0" class="st1" width="432" height="432"/>
<rect x="4320" y="0" class="st2" width="432" height="432"/>
<polygon class="st2" points="1296,432 1296,0 1728,0 "/>
<rect x="7344" y="0" class="st1" width="432" height="432"/>
<g>
	<path class="st0" d="M1728,0v432h432V0H1728z M2016,216c0,39.76-32.24,72-72,72l0,0c-39.76,0-72-32.24-72-72v0
		c0-39.76,32.24-72,72-72l0,0C1983.77,144,2016,176.23,2016,216L2016,216z"/>
</g>
<path class="st2" d="M648,432L648,432c-119.29,0-216-96.71-216-216v0C432,96.71,528.71,0,648,0h0c119.29,0,216,96.71,216,216v0
	C864,335.29,767.29,432,648,432z"/>
<g>
	<path class="st1" d="M4968,0h-216v216C4752,96.71,4848.71,0,4968,0z"/>
	<path class="st1" d="M4968,432h216V216C5184,335.29,5087.29,432,4968,432z"/>
	<path class="st1" d="M4752,216v216h216C4848.71,432,4752,335.29,4752,216z"/>
	<path class="st1" d="M4968,0c119.29,0,216,96.71,216,216V0H4968z"/>
</g>
<polygon class="st0" points="7344,0 7776,0 7560,432 "/>
<polygon class="st0" points="4752,0 4752,432 4320,432 "/>
<polygon class="st2" points="7344,432 6912,432 6912,0 "/>
<polygon class="st2" points="5184,432 5184,0 5616,0 "/>
<path class="st0" d="M6480,0h-17h-415v432h415h17h432V0H6480z M6336,216c0,39.76-32.24,72-72,72l0,0c-39.76,0-72-32.24-72-72l0,0
	c0-39.76,32.24-72,72-72l0,0C6303.77,144,6336,176.23,6336,216L6336,216z"/>
<path class="st1" d="M6480,432L6480,432c0-119.29,96.71-216,216-216h0c119.29,0,216,96.71,216,216v0C6912,432,6480,432,6480,432z"/>
<path class="st0" d="M3888,432L3888,432c0-119.29,96.71-216,216-216h0c119.29,0,216,96.71,216,216v0C4320,432,3888,432,3888,432z"/>
<path class="st0" d="M648,288L648,288c-39.76,0-72-32.24-72-72v0c0-39.76,32.24-72,72-72h0c39.76,0,72,32.24,72,72v0
	C720,255.76,687.77,288,648,288z"/>
</svg>
