<svg id="Group_8" data-name="Group 8" xmlns="http://www.w3.org/2000/svg" viewBox="0 0 311.172 321.495">
  <defs>
    <style>
      .cls-1 {
        fill: #ef483e;
      }

      .cls-2 {
        fill: #ffc832;
      }

      .cls-3 {
        fill: #022266;
      }
    </style>
  </defs>
  <rect id="Rectangle_17" data-name="Rectangle 17" class="cls-1" width="219.369" height="50.879" transform="translate(79.268 258.081)"/>
  <circle id="Ellipse_7" data-name="Ellipse 7" class="cls-2" cx="56.409" cy="56.409" r="56.409" transform="translate(172.914 25.071)"/>
  <path id="Path_32" data-name="Path 32" class="cls-3" d="M18,0V321.5H262.808V0ZM250.273,12.535V245.177H30.9V12.535ZM30.9,308.96V258.081H250.273V308.96Z" transform="translate(48.364)"/>
  <path id="Path_33" data-name="Path 33" class="cls-3" d="M252.919,46.47l11.8-6.268-11.8-6.268A24.889,24.889,0,0,0,228.955,15.5a23.193,23.193,0,0,0-18.066,8.111h0L68.576,165.556H0L48.3,203.9,73.737,178.46h53.091V203.9h12.535V178.46h3.687c3.318,0,6.636-.369,10.323-.737V203.53h12.535V175.51a94.023,94.023,0,0,0,42.4-23.965,91.736,91.736,0,0,0,26.914-65.258V64.535A25.069,25.069,0,0,0,252.919,46.47ZM47.192,186.939,36.5,178.46H56.04Zm106.919-64.889A108.545,108.545,0,0,0,195.4,146.015a75.411,75.411,0,0,1-12.9,9.217,123.107,123.107,0,0,1-37.606-23.965ZM204.99,46.838a26.628,26.628,0,0,0,5.162,9.586L101.389,165.556H86.641ZM110.606,165.556,140.1,136.061a129.792,129.792,0,0,0,34.657,23.227,81.967,81.967,0,0,1-31.338,6.268Zm90.328-24.7a105.883,105.883,0,0,1-42.03-23.6l56.409-56.409a26.612,26.612,0,0,0,7.374,3.318V85.919A79.415,79.415,0,0,1,200.934,140.854Zm28.02-88.485A12.167,12.167,0,1,1,241.121,40.2,12.275,12.275,0,0,1,228.955,52.369Z" transform="translate(0 41.646)"/>
</svg>
