<?xml version="1.0" encoding="utf-8"?>
<!-- Generator: Adobe Illustrator 22.1.0, SVG Export Plug-In . SVG Version: 6.00 Build 0)  -->
<svg version="1.1" id="Layer_1" xmlns="http://www.w3.org/2000/svg" xmlns:xlink="http://www.w3.org/1999/xlink" x="0px" y="0px"
	 viewBox="0 0 200 30" style="enable-background:new 0 0 200 30;" xml:space="preserve">
<style type="text/css">
	.st0{fill:#1C1C1C;}
</style>
<g>
	<g>
		<path class="st0" d="M21.5,17.5H8v10.7c0,0.6,0.1,0.9,0.5,1.3H0c0.4-0.3,0.5-0.7,0.5-1.3V1.3C0.5,0.7,0.4,0.3,0,0h8.5
			C8.1,0.3,8,0.7,8,1.3v9.9h13.6V1.3c0-0.6-0.1-0.9-0.5-1.3h8.5C29.1,0.3,29,0.7,29,1.3v26.9c0,0.6,0.1,0.9,0.5,1.3H21
			c0.4-0.3,0.5-0.7,0.5-1.3V17.5z"/>
		<path class="st0" d="M51.4,23.7h-9.6L40,28.2c-0.2,0.5-0.2,0.8,0.1,1.2h-8.5c0.4-0.3,0.8-0.9,1-1.4L45,0h4.7l10.9,28.1
			c0.2,0.5,0.5,1.1,0.9,1.4H53c0.3-0.4,0.3-0.8,0.1-1.2L51.4,23.7z M44,18.3h5.4l-2.6-7.5L44,18.3z"/>
		<path class="st0" d="M64.9,1.3c0-0.6-0.1-0.9-0.5-1.3h13.3C86,0,88.9,4.6,88.9,9.5c0,3.8-1.7,6.7-5.2,8.4c2,2.7,3.3,4.4,4.8,5.2
			c1,0.6,2.2,0.9,3.5,0.9c0.7,0,1.4-0.1,2-0.3v5.9c-1.7,0.4-3.2,0.6-4.5,0.6c-6.4,0-9.1-4.4-13.2-10.3h-3.8v8.3
			c0,0.6,0.1,0.9,0.5,1.3h-8.5c0.4-0.3,0.5-0.7,0.5-1.3V1.3z M72.4,6.3v7.8h4.2c2.9,0,4.8-1.1,4.8-3.9c0-2.3-1.2-4-4.3-4H72.4z"/>
		<path class="st0" d="M97.3,1.3c0-0.6-0.1-0.9-0.5-1.3h13.3c8.3,0,11.2,4.6,11.2,9.5c0,3.8-1.7,6.7-5.2,8.4c2,2.7,3.3,4.4,4.8,5.2
			c1,0.6,2.2,0.9,3.5,0.9c0.7,0,1.4-0.1,2-0.3v5.9c-1.7,0.4-3.2,0.6-4.5,0.6c-6.4,0-9.1-4.4-13.2-10.3h-3.8v8.3
			c0,0.6,0.1,0.9,0.5,1.3h-8.5c0.4-0.3,0.5-0.7,0.5-1.3V1.3z M104.7,6.3v7.8h4.2c2.9,0,4.8-1.1,4.8-3.9c0-2.3-1.2-4-4.3-4H104.7z"/>
		<path class="st0" d="M129.7,1.3c0-0.6-0.1-0.9-0.5-1.3h8.5c-0.4,0.3-0.5,0.7-0.5,1.3v26.9c0,0.6,0.1,0.9,0.5,1.3h-8.5
			c0.4-0.3,0.5-0.7,0.5-1.3V1.3z"/>
		<path class="st0" d="M165.7,29.5h-22.5c0.4-0.3,0.5-0.7,0.5-1.3V1.3c0-0.6-0.1-0.9-0.5-1.3h22.5v6.9c-0.4-0.4-0.7-0.5-1.2-0.5
			h-13.3v4.9h11.7c0.6,0,0.9-0.1,1.3-0.5V18c-0.3-0.4-0.7-0.5-1.3-0.5h-11.7v5.6h13.3c0.5,0,0.8-0.1,1.2-0.5V29.5z"/>
		<path class="st0" d="M171,1.3c0-0.6-0.1-0.9-0.5-1.3h13.3c8.3,0,11.2,4.6,11.2,9.5c0,3.8-1.7,6.7-5.2,8.4c2,2.7,3.3,4.4,4.8,5.2
			c1,0.6,2.2,0.9,3.5,0.9c0.7,0,1.4-0.1,2-0.3v5.9c-1.7,0.4-3.2,0.6-4.5,0.6c-6.4,0-9.1-4.4-13.2-10.3h-3.8v8.3
			c0,0.6,0.1,0.9,0.5,1.3h-8.5c0.4-0.3,0.5-0.7,0.5-1.3V1.3z M178.5,6.3v7.8h4.2c2.9,0,4.8-1.1,4.8-3.9c0-2.3-1.2-4-4.3-4H178.5z"/>
	</g>
</g>
</svg>
